<svg xmlns="http://www.w3.org/2000/svg" viewBox="0 0 183.68 90.01"><defs><style>.cls-1{fill:#fff;stroke:#656673;stroke-miterlimit:10;}</style></defs><title>Asset 1</title><g id="Layer_2" data-name="Layer 2"><g id="Layer_1-2" data-name="Layer 1"><path class="cls-1" d="M73.25,89.51c2.18-6.58,4.38-13.16,6.53-19.75a8.51,8.51,0,0,0,.42-2.45c.11-15.79-1.92-18.83-15.78-21.87a232.29,232.29,0,0,0-24.05-4C22.1,39.42,8.06,27.75,3.19,10.06,2.58,7.83,2,5.59,1,1.84c11,12,23.79,11.7,37,9.72,4.6-.69,9.19-1.48,13.82-1.93C68.42,8,82.53,12.29,91.81,27c.62-.13,1.09-.08,1.21-.27C103.5,10.89,118.81,7.64,136.36,10c7.24,1,14.5,2,21.78,2.49q14.37,1,24.87-9.82c-2.47,21.34-17.9,36.39-38.55,38.79a254,254,0,0,0-28.4,5.07c-8.41,2-11.26,5.72-10.82,14.27.51,9.59,2,19.13,3,28.69Z"/></g></g></svg>